<svg version="1.2" baseProfile="tiny-ps" xmlns="http://www.w3.org/2000/svg" viewBox="0 0 512 512" width="512" height="512">
	<title>account-cl-svg</title>
	<style>
		tspan { white-space:pre }
		.shp0 { fill: #00966a } 
	</style>
	<g id="Layer">
		<g id="Layer">
			<g id="Layer">
				<path id="Layer" fill-rule="evenodd" class="shp0" d="M436.09 344.72C456.54 362.16 469.52 388.07 469.52 416.96C469.52 469.37 426.8 512 374.29 512C346.66 512 321.74 500.19 304.33 481.36C287.89 491.05 269.75 500.78 249.12 510.97C247.73 511.65 246.21 512 244.69 512C243.18 512 241.67 511.66 240.27 510.97C175.54 479.07 130.77 449.02 99.39 416.41C61.09 376.63 42.48 332.64 42.48 281.92L42.48 235.07C42.48 229.55 46.96 225.07 52.48 225.07C58 225.07 62.48 229.55 62.48 235.07L62.48 281.92C62.48 364.48 117.04 427.13 244.69 490.84C262.28 482.06 277.97 473.62 292.3 465.24C288.56 458.94 285.53 452.18 283.31 445.06C272.86 451.23 261.63 457.42 249.29 463.8C247.84 464.54 246.27 464.92 244.69 464.92C243.12 464.92 241.54 464.54 240.1 463.8C191.33 438.56 123.44 398.34 97.05 340.65C88.66 322.42 84.58 303.21 84.58 281.92L84.58 127.72C84.58 124.98 85.71 122.35 87.7 120.46C89.7 118.57 92.38 117.59 95.12 117.74C150.84 120.76 204.31 105.17 238.17 76.03C241.92 72.81 247.47 72.81 251.22 76.04C285.05 105.17 338.52 120.76 394.26 117.73C397 117.58 399.69 118.57 401.68 120.46C403.68 122.35 404.81 124.98 404.81 127.72L404.81 281.92C404.81 296.95 402.63 311.38 398.34 325C405.59 326.89 412.5 329.61 418.97 333.05C424.22 316.9 426.88 299.75 426.88 281.92L426.88 91.24C392.24 98.9 353 97.66 319.4 87.56C285.11 77.25 259.32 58.78 244.69 34.48C230.05 58.78 204.26 77.25 169.96 87.56C136.36 97.66 97.12 98.9 62.48 91.24L62.48 145.27C62.48 150.79 58 155.27 52.48 155.27C46.96 155.27 42.48 150.79 42.48 145.27L42.48 78.34C42.48 75.19 43.97 72.22 46.5 70.33C49.03 68.44 52.3 67.86 55.32 68.76C117.14 87.11 215.44 72.54 235.12 7.12C236.39 2.89 240.28 0 244.69 0C244.69 0 244.69 0 244.69 0C249.11 0 253 2.9 254.27 7.12C273.92 72.54 372.21 87.11 434.03 68.76C437.06 67.86 440.33 68.44 442.86 70.33C445.39 72.22 446.88 75.19 446.88 78.34L446.88 281.92C446.88 303.89 443.25 324.97 436.09 344.72ZM115.23 332.31C121.84 346.77 131.58 360.13 143.16 372.39L143.16 351.46C143.16 316.49 161.44 284.2 190.7 265.76C180.77 253.72 174.81 238.32 174.81 221.55C174.81 183.08 206.16 151.79 244.69 151.79C283.23 151.79 314.58 183.08 314.58 221.55C314.58 238.32 308.61 253.73 298.67 265.78C320.82 279.77 336.87 301.88 343.2 327.13C352.95 323.76 363.41 321.92 374.3 321.92C375.63 321.92 376.96 321.96 378.28 322.01C382.66 309.43 384.81 296.24 384.81 281.92L384.81 138.07C359.74 138.44 334.67 135.34 311.68 128.97C285.8 121.81 263.31 110.91 244.69 96.51C226.06 110.91 203.56 121.81 177.68 128.97C154.7 135.34 129.63 138.45 104.58 138.07L104.58 281.92C104.58 300.26 108.06 316.74 115.23 332.31ZM194.81 221.55C194.81 248.96 217.19 271.27 244.69 271.27C272.2 271.27 294.58 248.96 294.58 221.55C294.58 194.11 272.2 171.79 244.69 171.79C217.19 171.79 194.81 194.11 194.81 221.55ZM279.34 424.13C279.16 421.76 279.07 419.37 279.07 416.96C279.07 382.7 297.34 352.61 324.66 335.89C319.97 312.13 304.6 291.38 283.05 279.79C272.03 287.04 258.85 291.27 244.69 291.27C230.53 291.27 217.35 287.04 206.33 279.79C179.93 293.94 163.16 321.48 163.16 351.46L163.16 391.15C188.89 412.76 219.14 430.23 244.69 443.64C257.33 437 268.75 430.57 279.34 424.13ZM374.29 492C415.78 492 449.52 458.34 449.52 416.96C449.52 375.59 415.77 341.92 374.29 341.92C332.81 341.92 299.07 375.59 299.07 416.96C299.07 458.34 332.81 492 374.29 492Z" />
				<path id="Layer" class="shp0" d="M414.65 382.91C410.42 379.36 404.11 379.91 400.56 384.14L362.7 429.23L346.84 415.8C342.63 412.23 336.31 412.75 332.74 416.96C329.17 421.18 329.7 427.48 333.91 431.06L357.43 450.98C359.25 452.52 361.54 453.35 363.9 453.35C364.18 453.35 364.46 453.34 364.74 453.32C367.39 453.09 369.84 451.82 371.55 449.78L415.87 397C419.43 392.77 418.88 386.47 414.65 382.91L414.65 382.91Z" />
				<path id="Layer" class="shp0" d="M52.48 200.17C58 200.17 62.48 195.69 62.48 190.17L62.48 190.14C62.48 184.62 58 180.15 52.48 180.15C46.95 180.15 42.48 184.64 42.48 190.17C42.48 195.69 46.95 200.17 52.48 200.17Z" />
			</g>
		</g>
	</g>
</svg>