<svg version="1.2" baseProfile="tiny-ps" xmlns="http://www.w3.org/2000/svg" viewBox="0 0 512 512" width="512" height="512">
	<title>booking-cl-svg</title>
	<style>
		tspan { white-space:pre }
		.shp0 { fill: #00966a } 
	</style>
	<g id="Layer">
		<g id="Layer">
			<path id="Layer" class="shp0" d="M502.27 426.34L491.15 426.34L491.15 242.7C491.15 238.55 487.79 235.2 483.65 235.2C479.51 235.2 476.15 238.55 476.15 242.7L476.15 426.34L101.63 426.34C97.48 426.34 94.13 429.7 94.13 433.84C94.13 437.98 97.48 441.34 101.63 441.34L496.63 441.34L496.63 448.29C496.63 459.95 487.14 469.44 475.48 469.44L36.15 469.44C24.49 469.44 15 459.95 15 448.29L15 441.34L69.67 441.34C73.81 441.34 77.17 437.98 77.17 433.84C77.17 429.7 73.81 426.34 69.67 426.34L35.48 426.34L35.48 165.25C35.48 152.83 45.59 142.72 58.01 142.72L143.31 142.72C147.45 142.72 150.81 139.36 150.81 135.22C150.81 131.08 147.45 127.72 143.31 127.72L58.01 127.72C37.32 127.72 20.48 144.56 20.48 165.25L20.48 426.34L9.36 426.34C4.2 426.34 0 430.54 0 435.7L0 448.29C0 468.22 16.22 484.44 36.15 484.44L475.48 484.44C495.41 484.44 511.63 468.22 511.63 448.29L511.63 435.7C511.63 430.54 507.43 426.34 502.27 426.34L502.27 426.34Z" />
			<path id="Layer" class="shp0" d="M369.32 142.72L453.62 142.72C466.05 142.72 476.15 152.82 476.15 165.25L476.15 210.73C476.15 214.88 479.51 218.23 483.65 218.23C487.79 218.23 491.15 214.88 491.15 210.73L491.15 165.25C491.15 144.56 474.32 127.72 453.62 127.72L369.32 127.72C365.18 127.72 361.82 131.08 361.82 135.22C361.82 139.36 365.18 142.72 369.32 142.72Z" />
			<path id="Layer" class="shp0" d="M50.48 165.25L50.48 403.84C50.48 407.98 53.84 411.34 57.98 411.34L453.65 411.34C455.64 411.34 457.54 410.55 458.95 409.14C460.36 407.74 461.15 405.83 461.15 403.84L461.12 165.22C461.12 161.08 457.77 157.72 453.62 157.72L360.65 157.73C356.51 157.73 353.15 161.09 353.15 165.23C353.15 169.37 356.51 172.73 360.65 172.73L446.13 172.72L446.15 396.34L65.48 396.34L65.48 172.75L151.99 172.74C156.13 172.74 159.49 169.38 159.49 165.24C159.49 161.1 156.13 157.74 151.98 157.74L57.98 157.75C53.84 157.75 50.48 161.11 50.48 165.25L50.48 165.25Z" />
			<path id="Layer" class="shp0" d="M256.32 210.55C306.87 210.55 348 169.42 348 118.87C348 104.25 344.63 90.25 338 77.26C336.12 73.57 331.6 72.11 327.91 73.99C324.22 75.87 322.76 80.39 324.64 84.08C330.19 94.94 333 106.64 333 118.87C333 161.15 298.6 195.55 256.31 195.55C214.03 195.55 179.63 161.15 179.63 118.87C179.63 76.59 214.03 42.19 256.31 42.19C274.77 42.19 292.61 48.86 306.56 60.97C309.68 63.69 314.42 63.36 317.14 60.23C319.85 57.1 319.52 52.36 316.39 49.65C299.72 35.17 278.38 27.19 256.31 27.19C205.76 27.19 164.63 68.32 164.63 118.87C164.63 169.42 205.76 210.55 256.32 210.55L256.32 210.55Z" />
			<path id="Layer" fill-rule="evenodd" class="shp0" d="M315.09 91.2C316.96 93.06 317.99 95.54 317.99 98.18C317.99 100.82 316.96 103.3 315.09 105.17L258.4 161.86C254.15 166.11 248.5 168.45 242.49 168.45C236.48 168.45 230.83 166.11 226.58 161.86L196.54 131.81C194.67 129.95 193.64 127.47 193.64 124.83C193.64 122.19 194.67 119.71 196.54 117.84L214.38 99.99C218.24 96.15 224.5 96.14 228.35 99.99L242.49 114.13L283.27 73.35C287.13 69.5 293.39 69.5 297.24 73.34L315.09 91.2ZM300.86 98.18L290.26 87.58L249.48 128.36C245.62 132.21 239.36 132.21 235.51 128.36L221.37 114.22L210.76 124.83L237.19 151.25C238.6 152.67 240.49 153.45 242.49 153.45C244.49 153.45 246.38 152.67 247.8 151.25L300.86 98.18Z" />
			<path id="Layer" class="shp0" d="M182.45 372.2L330.18 372.2C340 372.2 348 364.2 348 354.38L348 331.71C348 321.88 340 313.89 330.18 313.89L229.71 313.89C225.57 313.89 222.21 317.25 222.21 321.39C222.21 325.53 225.57 328.89 229.71 328.89L330.18 328.89C331.73 328.89 333 330.15 333 331.71L333 354.38C333 355.93 331.73 357.2 330.18 357.2L182.45 357.2C180.9 357.2 179.64 355.93 179.64 354.38L179.64 331.71C179.64 330.15 180.9 328.89 182.45 328.89L197.75 328.89C201.89 328.89 205.25 325.53 205.25 321.39C205.25 317.25 201.89 313.89 197.75 313.89L182.45 313.89C172.63 313.89 164.64 321.88 164.64 331.71L164.64 354.38C164.64 364.2 172.63 372.2 182.45 372.2L182.45 372.2Z" />
			<path id="Layer" fill-rule="evenodd" class="shp0" d="M183.2 254.84C183.2 281.11 161.83 302.48 135.56 302.48C109.3 302.48 87.93 281.11 87.93 254.84C87.93 228.57 109.3 207.2 135.56 207.2C161.83 207.2 183.2 228.57 183.2 254.84ZM168.2 254.84C168.2 236.84 153.56 222.2 135.56 222.2C117.57 222.2 102.93 236.84 102.93 254.84C102.93 272.84 117.57 287.48 135.56 287.48C153.56 287.48 168.2 272.84 168.2 254.84Z" />
			<path id="Layer" class="shp0" d="M213.73 250.19L225.35 250.19C229.49 250.19 232.85 246.84 232.85 242.69C232.85 238.55 229.49 235.19 225.35 235.19L213.73 235.19C209.59 235.19 206.23 238.55 206.23 242.69C206.23 246.84 209.59 250.19 213.73 250.19Z" />
			<path id="Layer" class="shp0" d="M409.14 235.19L255.81 235.19C251.67 235.19 248.31 238.55 248.31 242.69C248.31 246.84 251.67 250.19 255.81 250.19L409.14 250.19C413.28 250.19 416.64 246.84 416.64 242.69C416.64 238.55 413.28 235.19 409.14 235.19L409.14 235.19Z" />
			<path id="Layer" class="shp0" d="M416.64 273.86C416.64 269.71 413.29 266.36 409.14 266.36L213.73 266.36C209.59 266.36 206.23 269.71 206.23 273.86C206.23 278 209.59 281.36 213.73 281.36L409.14 281.36C413.28 281.36 416.64 278 416.64 273.86L416.64 273.86Z" />
		</g>
	</g>
</svg>