<?xml version="1.0"?>
<svg xmlns="http://www.w3.org/2000/svg" xmlns:xlink="http://www.w3.org/1999/xlink" xmlns:svgjs="http://svgjs.com/svgjs" version="1.1" width="512" height="512" x="0" y="0" viewBox="0 0 74 74" style="enable-background:new 0 0 512 512" xml:space="preserve"><g><path xmlns="http://www.w3.org/2000/svg" d="m27.446 52.881a25.435 25.435 0 0 1 -17.993-43.428 25.446 25.446 0 1 1 17.993 43.428zm-16.579-42.014a23.447 23.447 0 1 0 33.158 0 23.473 23.473 0 0 0 -33.158 0z" fill="#ffffff" data-original="#000000" style=""/><path xmlns="http://www.w3.org/2000/svg" d="m27.446 46.893a19.447 19.447 0 1 1 13.754-5.693 19.322 19.322 0 0 1 -13.754 5.693zm0-36.893a17.447 17.447 0 1 0 12.337 5.11 17.338 17.338 0 0 0 -12.337-5.11z" fill="#ffffff" data-original="#000000" style=""/><path xmlns="http://www.w3.org/2000/svg" d="m63.3 72c-.083 0-.167 0-.25 0a8.629 8.629 0 0 1 -6.25-2.9l-17.8-19.859a1 1 0 1 1 1.489-1.335l17.805 19.86a6.713 6.713 0 1 0 9.755-9.219c-.083-.083-.158-.159-.248-.235l-19.895-17.829a1 1 0 0 1 1.335-1.489l19.859 17.806c.111.092.229.207.357.335a8.717 8.717 0 0 1 -.01 12.314 8.622 8.622 0 0 1 -6.147 2.551z" fill="#ffffff" data-original="#000000" style=""/><path xmlns="http://www.w3.org/2000/svg" d="m62.548 66.589a4.042 4.042 0 1 1 4.041-4.041 4.046 4.046 0 0 1 -4.041 4.041zm0-6.083a2.042 2.042 0 1 0 2.041 2.042 2.044 2.044 0 0 0 -2.041-2.042z" fill="#ffffff" data-original="#000000" style=""/></g></svg>
